<svg width="269" height="47" viewBox="0 0 269 47" fill="none" xmlns="http://www.w3.org/2000/svg">
<path fill-rule="evenodd" clip-rule="evenodd" d="M269 38.4659H182.628V41.0378H269V38.4659ZM86.7755 38.4659H0.402954V41.0378H86.7755V38.4659Z" fill="url(#paint0_linear)"/>
<path fill-rule="evenodd" clip-rule="evenodd" d="M171.615 32.217C169.297 32.1962 166.975 32.217 164.657 32.217V47.0001H167.44V42.6541H171.615C178.847 42.6541 178.827 32.217 171.615 32.217ZM105.07 47.0001V32.2585H102.308V38.4784H95.0546V32.2585H92.2714V47.0001H95.0546V41.0503H102.308V46.9959H105.07V47.0001ZM127.212 44.2578H118.924V40.9256H126.917V38.333H118.924V34.9177H127.212V32.217H116.162C116.162 37.1447 116.162 42.0848 116.162 47.0001H127.212V44.2578ZM150.741 47.0001H153.524V32.2585H150.342L145.722 38.5947L141.103 32.2585H137.896V47.0001H140.679V36.2805L145.382 42.7039H145.93L150.736 36.3054V47.0001H150.741ZM167.44 34.872H171.615C175.159 34.872 175.179 40.103 171.615 40.103H167.44V34.872Z" fill="url(#paint1_linear)"/>
<path fill-rule="evenodd" clip-rule="evenodd" d="M269 21.4267H254.826V15.7262H268.493V11.2888H264.376H254.826H250.103V26.1134H269V21.4267ZM22.7189 4.0053C20.1226 1.44174 16.7328 0.145421 13.343 0.145421C4.4366 0.145421 0 6.71013 0 13.815C0 20.4503 3.85918 26.691 13.343 26.691C17.7796 26.691 20.916 24.9958 23.4043 22.1455V11.5049H12.587V15.7595H19.0425V20.2343C17.061 21.8214 15.3287 22.2535 13.343 22.2535C7.06616 22.2535 4.65261 17.9615 4.65261 13.815C4.65261 8.62138 7.93437 4.50804 13.343 4.50804C15.5447 4.50804 18.0663 5.40965 19.7611 7.03421L22.7189 4.0053ZM39.2647 0.361475C31.9909 0.361475 26.092 6.2614 26.092 13.5366C26.092 20.8118 31.9909 26.7117 39.2647 26.7117C46.5386 26.7117 52.4375 20.8118 52.4375 13.5366C52.4333 6.25725 46.5386 0.361475 39.2647 0.361475ZM56.0141 0.830976V26.1176H73.7564V21.7134H60.7748V0.830976H56.0141ZM86.7006 0.830976C83.6017 0.830976 79.8837 0.830976 76.7847 0.830976V26.1176C79.8879 26.1176 83.6017 26.1176 86.7006 26.1176C95.5364 26.1176 99.433 19.6609 99.3208 13.2582C99.217 6.99682 95.3578 0.830976 86.7006 0.830976ZM81.508 5.33902H86.7006C92.1841 5.33902 94.4896 9.27785 94.5976 13.2208C94.7056 17.3466 92.4333 21.5347 86.7006 21.5347H81.508V5.33902ZM121.288 21.4267H107.114V15.7262H120.781V11.2888H112.535H107.11H102.387V26.1134H121.284V21.4267H121.288ZM142.312 16.5073L129.941 0.830976H126.082V26.1176H130.842V9.06595L144.115 26.1134H147.072V0.830976H142.312V16.5073ZM178.087 5.01494C176.176 1.11766 172.101 0 168.167 0C163.514 0.0373939 158.392 2.16469 158.392 7.35829C158.392 13.0214 163.153 14.3925 168.308 15.0033C171.661 15.3647 174.149 16.337 174.149 18.7177C174.149 21.46 171.337 22.5028 168.342 22.5028C165.276 22.5028 162.355 21.2771 161.238 18.4975L157.271 20.5542C159.144 25.1703 163.111 26.7574 168.271 26.7574C173.896 26.7574 178.872 24.3393 178.872 18.7136C178.872 12.689 173.966 11.3179 168.703 10.6697C165.675 10.3083 163.078 9.69749 163.078 7.4954C163.078 5.62155 164.773 4.13826 168.308 4.13826C171.05 4.13826 173.43 5.50937 174.294 6.95111L178.087 5.01494ZM189.087 26.1134H193.848V5.15621H201.853V0.830976C194.533 0.830976 188.364 0.830976 181.082 0.830976V5.16036H189.087V26.1134ZM224.788 26.1134H229.98L218.656 0.830976H213.464L202.139 26.1134H207.295L216.06 6.14091L224.788 26.1134ZM234.525 26.1134V5.15621H226.52V0.830976C233.806 0.830976 239.971 0.830976 247.291 0.830976V5.16036H239.286V26.1176H234.525V26.1134Z" fill="url(#paint2_linear)"/>
<path fill-rule="evenodd" clip-rule="evenodd" d="M107.056 5.447H112.481H121.234V0.830933H102.328V5.447H107.056Z" fill="url(#paint3_linear)"/>
<path fill-rule="evenodd" clip-rule="evenodd" d="M218.814 26.1218H213.231L216.027 19.7482L218.814 26.1218Z" fill="url(#paint4_linear)"/>
<path fill-rule="evenodd" clip-rule="evenodd" d="M38.6083 4.29617C38.5253 4.25462 38.6 4.30863 38.5294 4.238L38.3425 4.08427C38.3259 4.12166 38.3342 4.09258 38.3217 4.15075C38.276 4.38758 38.2511 5.01912 38.2345 5.27257C38.114 5.26841 38.0101 5.15207 37.8897 5.10637L37.8398 6.65614L37.2956 6.44424L37.5947 7.91091L37.0048 7.69486L37.333 9.13245L36.7224 8.90808L37.171 10.3664L36.6476 10.2044L37.1793 11.5381L36.6185 11.4841L37.2125 12.8718C37.063 12.9009 36.8678 12.9092 36.7598 12.9716L37.3496 13.9521L36.9384 13.977C36.9882 14.2887 37.3912 14.8911 37.4119 15.157L37.1295 15.2401C37.1669 15.3731 37.4576 15.7221 37.5532 15.8467C37.6363 15.9631 37.9561 16.3412 37.9686 16.4367L37.7152 16.4492L37.5158 16.0711L37.3455 16.2664C37.2582 16.0836 37.1918 15.8634 37.1295 15.6805C37.0796 15.5434 37.0007 15.182 36.8802 15.0822C36.8553 15.1279 36.8387 15.1653 36.8054 15.211C36.7431 15.29 36.7556 15.2775 36.685 15.2983C36.5936 15.1155 36.5063 14.9451 36.415 14.7706L36.1242 14.2679C36.0951 14.3219 36.0868 14.3551 36.066 14.405L35.9663 14.5379L35.4803 13.5865L35.2726 13.9812C35.0815 13.7651 34.7658 12.9716 34.6121 12.8386C34.5871 12.8885 34.5747 12.9508 34.5622 13.0131L34.4958 13.1751C34.3587 13.0131 33.7854 12.099 33.6899 12.0741L33.6566 12.5145C33.5528 12.4605 33.6525 12.5228 33.5902 12.4688C33.5694 12.448 33.5445 12.419 33.532 12.3982C33.3201 12.1073 33.1207 11.7625 32.8715 11.5007C32.7926 11.5921 32.7926 11.8082 32.7219 11.9079C32.4893 11.696 32.0199 11.0229 31.8122 10.9024L31.808 11.4301C31.6211 11.3221 31.4466 11.1268 31.2805 10.9855C31.1351 10.8609 30.89 10.6157 30.7363 10.541L30.6989 10.8318C30.5327 10.8069 30.0592 10.3706 29.839 10.2958L29.8348 10.4911C29.623 10.4122 29.1037 10.059 28.8877 9.92188C28.7215 9.818 28.0901 9.39836 27.9364 9.35266C28.0112 9.51885 28.1316 9.6435 28.2397 9.80138C28.3518 9.95927 28.4515 10.1005 28.5595 10.2501C28.7298 10.4869 29.0746 10.9066 29.1826 11.1517L28.9417 11.2473L29.6853 12.0201L29.4236 12.1032C29.5939 12.3608 30.1339 12.6849 30.2918 12.9383L29.9719 13.1128C30.0799 13.3123 30.8027 13.7028 30.9689 13.9147L30.6075 13.9978C30.7197 14.1889 31.3511 14.459 31.5131 14.6543L31.1808 14.8246C31.3054 14.9576 31.6294 15.0698 31.808 15.157L32.427 15.4894L32.0614 15.7096C32.1985 15.8135 32.4312 15.8634 32.6098 15.9215C32.7095 15.9548 32.7967 15.9838 32.8964 16.0171C32.938 16.0296 32.9837 16.0462 33.0294 16.0628C33.1166 16.096 33.1124 16.0836 33.1664 16.1334C33.1 16.2165 32.9297 16.3661 32.8466 16.4326C32.9338 16.5032 33.748 16.7276 33.9142 16.7733C33.8353 16.8605 33.7148 16.8688 33.6525 16.9769L34.7699 17.4547C34.7118 17.5295 34.5456 17.5793 34.5041 17.6707L35.5343 18.0364L35.4678 18.2815L36.0452 18.3438C36.0785 18.4435 36.0411 18.5516 36.0203 18.6679L35.2643 18.4311C35.2352 18.4934 35.2601 18.456 35.2435 18.5017L35.2144 18.5682C35.2103 18.5723 35.2061 18.5848 35.202 18.589L34.5788 18.3646L34.5913 18.6139L33.8602 18.4103L33.9142 18.6887L33.075 18.4643L33.154 18.7053L32.4229 18.5973L32.535 18.8715L31.6003 18.7593L31.6876 18.992L30.9481 19.0086L30.9855 19.2163L30.3042 19.208L30.3707 19.4158C30.1672 19.4532 29.004 19.7399 28.9209 19.7939L30.4538 20.0182L30.3292 20.226L31.0894 20.2343L30.9814 20.4503L31.8787 20.3922C31.833 20.467 31.7125 20.6248 31.6751 20.6996L32.535 20.575L32.4769 20.8741L33.2246 20.6747L33.1374 20.9863L34.018 20.7038L33.935 20.9489L34.7284 20.6664L34.6536 20.8825L35.3681 20.6539L35.3224 20.8908L36.0743 20.5542C36.1034 20.816 35.9995 20.5501 36.1034 20.7412L36.6933 20.496C36.7348 20.5625 36.6891 20.4919 36.7182 20.5542L36.7514 20.6207L37.4576 20.1637L37.4992 20.3008C37.5033 20.3091 37.5075 20.3174 37.5075 20.3257C37.5116 20.3299 37.5116 20.3423 37.52 20.3506C37.6861 20.2468 37.9561 20.0224 38.114 19.9559C38.1389 20.1263 38.1638 20.0681 37.9811 20.1221C37.9603 20.3049 38.0932 20.2301 37.711 20.3506C37.5698 20.3963 37.4244 20.4503 37.279 20.4836C37.3206 20.5916 37.3122 20.5251 37.3579 20.6456L36.9218 20.8035L37.0505 20.9074L36.631 21.0819C36.6891 21.1733 36.6974 21.1193 36.7514 21.2273L36.3236 21.4226L36.4607 21.5181C36.3817 21.6137 36.1574 21.7633 36.0369 21.8173C36.1034 21.9295 36.0909 21.8547 36.1657 21.9378L35.7669 22.1912L35.9331 22.2826C35.9248 22.2951 35.9165 22.2951 35.9165 22.3076L35.8542 22.3657C35.7503 22.4447 35.634 22.4862 35.5426 22.586L35.7088 22.6774C35.5966 22.8103 35.447 22.8976 35.339 23.0264C35.4055 23.0762 35.3349 23.0139 35.4097 23.0638L35.4886 23.1219L35.2103 23.3795C35.2352 23.4086 35.2144 23.3878 35.2601 23.4211L35.3307 23.4668L34.8613 24.2562C35.123 24.1233 35.3764 23.8947 35.6298 23.7285C35.7046 23.7618 35.6174 23.7202 35.6797 23.7701C35.7378 23.8158 35.6755 23.7992 35.7503 23.8241L36.012 23.5291L36.1034 23.6745C36.1906 23.579 36.3526 23.3463 36.4274 23.3006L36.4814 23.4294C36.5479 23.3837 36.5936 23.2881 36.6351 23.2216C36.6808 23.1427 36.7224 23.0555 36.7847 23.0014L36.8387 23.2092C36.9135 23.1593 36.955 23.0721 37.0132 22.9807C37.063 22.9017 37.1004 22.8352 37.171 22.7605L37.2499 22.9017L37.5241 22.3741L37.6072 22.5112C37.6944 22.3741 37.7069 22.1788 37.7941 22.0832L37.8689 22.2037C37.8731 22.2079 37.8772 22.2162 37.8814 22.2203L38.0517 21.7674C38.1348 21.8298 38.114 21.8547 38.1846 21.9087L38.3175 21.4558L38.4422 21.5555L38.5336 21.086L38.6499 21.1276L38.7537 20.683L38.8825 20.7287L38.9531 20.2966L39.1193 20.388L39.0071 25.3406H39.5098L39.4142 20.388L39.5638 20.2925L39.6302 20.7121C39.7175 20.7121 39.7009 20.6706 39.7715 20.6955L39.8712 21.1234C39.8795 21.1234 39.921 21.1193 39.9252 21.1193C40 21.1276 39.9501 21.1068 40.0041 21.1401L40.0872 21.5639C40.137 21.5348 40.1038 21.5514 40.1412 21.5223C40.1786 21.4932 40.162 21.4974 40.2077 21.4683L40.3489 21.9295C40.486 21.8173 40.3489 21.8838 40.486 21.7799L40.648 22.2328L40.7394 22.0915L40.9097 22.5278L40.9928 22.3907L41.2628 22.9225L41.3501 22.7771C41.483 22.91 41.537 23.1219 41.699 23.2258L41.7364 23.0305C41.8485 23.1178 41.9607 23.3255 42.0147 23.4585C42.1061 23.4003 42.0189 23.4502 42.0687 23.3962L42.1435 23.3255C42.2058 23.446 42.318 23.5748 42.426 23.6953L42.5132 23.554L42.7874 23.8366C42.8455 23.82 42.8289 23.7826 42.8995 23.7493C43.1529 23.9155 43.4063 24.144 43.6597 24.2811L43.1945 23.4876C43.2028 23.4834 43.2111 23.4709 43.2153 23.4751L43.3233 23.3962C43.2319 23.2923 43.0989 23.2175 43.0574 23.1012L43.1945 23.0555C43.0823 22.91 42.9328 22.8228 42.8206 22.694L42.9909 22.6109C42.9037 22.507 42.7915 22.4613 42.696 22.3907L42.6004 22.3034L42.7625 22.2286L42.3969 21.9295L42.4924 21.8298C42.372 21.7758 42.1476 21.6262 42.0729 21.5348L42.2058 21.4558L41.7821 21.2315C41.8319 21.1317 41.8402 21.1858 41.9026 21.0902L41.483 20.9157L41.6076 20.8118L41.1756 20.6498C41.2171 20.5376 41.213 20.5999 41.2545 20.496L40.6189 20.2966C40.4528 20.2218 40.5732 20.2925 40.5525 20.1346C40.4029 20.0889 40.3946 20.1138 40.4112 19.9808C40.5068 19.9808 40.9139 20.3049 41.0426 20.3714L41.0883 20.2177C41.0925 20.2094 41.0967 20.201 41.1008 20.1927L41.7779 20.6332L41.8319 20.5251C41.8319 20.521 41.8361 20.5127 41.8402 20.5044L42.4592 20.7661V20.5625L43.2069 20.9115L43.1654 20.6664L43.8758 20.8991L43.8051 20.6872L44.6027 20.9572L44.5155 20.7121L45.392 20.9988L45.3089 20.683L46.0525 20.8825L45.9985 20.5791L46.8543 20.7121C46.8003 20.6082 46.7006 20.4877 46.6673 20.3922L47.5438 20.4587L47.4441 20.2384L48.2002 20.226L48.0756 20.0182L49.6001 19.7939C49.5212 19.7191 49.3633 19.7066 49.2595 19.6775C48.8981 19.5861 48.5284 19.4739 48.167 19.4075L48.2376 19.1997L47.548 19.2039L47.5979 18.9961L46.8543 18.9795L46.9332 18.751L46.011 18.859L46.1148 18.589L45.3837 18.6928L45.4626 18.456L44.6193 18.6762L44.6817 18.402L43.9381 18.6014L43.9505 18.3563L43.3233 18.5723L43.2651 18.4186L42.5132 18.6637C42.4883 18.5349 42.4509 18.4269 42.4841 18.3272L43.0532 18.269L42.9868 18.0156L44.0378 17.6583C43.9921 17.5876 43.909 17.5669 43.8301 17.5045L43.7636 17.4381L44.8769 16.9561C44.8395 16.8938 44.7814 16.8813 44.69 16.8231L44.6193 16.7608C44.7814 16.7151 45.6039 16.4907 45.687 16.416C45.5831 16.3329 45.4626 16.2207 45.3712 16.1168C45.5582 15.9589 46.2436 15.8634 46.4679 15.7013L46.1065 15.4686C46.2644 15.2775 47.1367 15.0324 47.3444 14.8163L47.0121 14.6501C47.1201 14.5172 47.764 14.11 47.9385 14.0186L47.8554 13.9729C47.7599 13.9396 47.6477 13.9438 47.5605 13.9023C47.7059 13.7153 48.1088 13.4785 48.3041 13.3247C48.3664 13.279 48.3871 13.2666 48.4411 13.225L48.5658 13.0879L48.2376 12.9217C48.3788 12.6932 48.977 12.2943 49.0933 12.0949L48.8441 12.0159L49.5835 11.2431L49.3426 11.1268C49.4547 10.8775 50.0737 10.0881 50.2731 9.80138C50.3811 9.64765 50.514 9.50223 50.5888 9.33604C50.1651 9.46068 49.1723 10.3 48.6862 10.4745V10.2792L47.8429 10.8235L47.7848 10.5243C47.6394 10.595 47.3901 10.8443 47.2447 10.9689C47.0786 11.1102 46.9041 11.3013 46.7213 11.4135L46.713 10.8858C46.6466 10.9232 46.3433 11.2805 46.2602 11.3761C46.1231 11.5423 45.9528 11.7542 45.7991 11.8913C45.7202 11.7791 45.7368 11.5838 45.6496 11.4841C45.5249 11.6129 44.9891 12.4647 44.8603 12.5104L44.827 12.0575C44.6941 12.0907 44.1998 13.0048 44.0211 13.1585L43.9131 12.8261C43.7137 12.9757 43.4562 13.7485 43.2526 13.9604L43.0574 13.5699L42.5506 14.5338C42.4675 14.4673 42.4343 14.3551 42.401 14.2554C42.3304 14.3177 42.2889 14.4133 42.2473 14.4964C42.1975 14.5878 42.156 14.6709 42.1061 14.7665C42.0147 14.941 41.9275 15.1072 41.8361 15.2941C41.7488 15.2692 41.6865 15.1695 41.6408 15.0822C41.5951 15.1196 41.6242 15.0864 41.591 15.1363L41.5079 15.3523C41.4041 15.6556 41.3127 15.9672 41.1797 16.2622L41.0177 16.0586L40.81 16.445L40.5483 16.4326C40.5815 16.1874 41.3085 15.531 41.3874 15.236L41.105 15.1529C41.1299 14.8828 41.5287 14.2845 41.5827 13.9646L41.1797 13.948L41.7655 12.9632C41.6491 12.8968 41.4539 12.8843 41.3127 12.8594L41.9067 11.4758L41.3459 11.5298L41.8818 10.2003L41.3501 10.3623L41.8112 8.90808L41.1964 9.12829L41.5287 7.68655L40.9388 7.9026L41.2337 6.44009L40.6854 6.65199L40.6355 5.11468C40.5026 5.09806 40.432 5.25595 40.2866 5.2601L40.1952 4.01364C40.0747 4.05518 40.0747 4.18814 39.9044 4.2837L39.2771 1.67444L38.6083 4.29617Z" fill="black"/>
<path fill-rule="evenodd" clip-rule="evenodd" d="M254.822 5.447H260.247H269V0.830933H250.094V5.447H254.822Z" fill="url(#paint5_linear)"/>
<defs>
<linearGradient id="paint0_linear" x1="0.403465" y1="39.7511" x2="269" y2="39.7511" gradientUnits="userSpaceOnUse">
<stop stop-color="#D0D0D0"/>
</linearGradient>
<linearGradient id="paint1_linear" x1="92.2734" y1="39.6024" x2="177.031" y2="39.6024" gradientUnits="userSpaceOnUse">
<stop stop-color="#D6D6D6"/>
</linearGradient>
<linearGradient id="paint2_linear" x1="0" y1="13.3817" x2="308.889" y2="13.3817" gradientUnits="userSpaceOnUse">
<stop stop-color="#DCDCDC"/>
</linearGradient>
<linearGradient id="paint3_linear" x1="102.329" y1="3.13838" x2="121.233" y2="3.13838" gradientUnits="userSpaceOnUse">
<stop stop-color="#9A9A9A"/>
</linearGradient>
<linearGradient id="paint4_linear" x1="213.23" y1="22.9355" x2="218.814" y2="22.9355" gradientUnits="userSpaceOnUse">
<stop stop-color="#D9D9D9"/>
</linearGradient>
<linearGradient id="paint5_linear" x1="250.096" y1="3.13838" x2="269" y2="3.13838" gradientUnits="userSpaceOnUse">
<stop stop-color="#959595"/>
</linearGradient>
</defs>
</svg>
